<?xml version="1.0" encoding="utf-8"?>
<!-- Generator: Adobe Illustrator 18.0.0, SVG Export Plug-In . SVG Version: 6.00 Build 0)  -->
<!DOCTYPE svg PUBLIC "-//W3C//DTD SVG 1.1//EN" "http://www.w3.org/Graphics/SVG/1.1/DTD/svg11.dtd">
<svg version="1.1" id="ecommerce_1_" xmlns="http://www.w3.org/2000/svg" xmlns:xlink="http://www.w3.org/1999/xlink" x="0px"
	 y="0px" viewBox="0 0 115 115" style="enable-background:new 0 0 115 115;" xml:space="preserve">
<style type="text/css">
	.st0{fill:#FFEEAD;}
	.st1{fill:#C9B77D;}
	.st2{fill:#99734A;}
	.st3{fill:#FF6F69;}
	.st4{fill:#96CEB4;}
	.st5{fill:none;}
	.st6{fill:#AA9865;}
	.st7{fill:#71A58A;}
	.st8{fill:#FFCC5C;}
	.st9{fill:#825E3B;}
	.st10{fill:#639376;}
	.st11{fill:#E05858;}
	.st12{fill:#C1821E;}
	.st13{fill:#D6A041;}
	.st14{fill:#B28559;}
	.st15{fill:#BF4343;}
	.st16{fill:#D3C089;}
	.st17{fill:#7C5C3C;}
	.st18{fill:#FDCC5C;}
	.st19{fill:#FFFFFF;}
</style>
<g id="worldwide_shipping_1_">
	<g>
		<g>
			<circle class="st4" cx="61.321" cy="61.835" r="45.438"/>
		</g>
	</g>
	<path class="st7" d="M80.545,75.82l-0.03-0.044c-0.478-0.713-1.326-1.035-2.122-0.888c-0.548-2.716-1.014-4.874-1.177-5.62
		l0.683-0.496c4.061-3.352,12.353-15.107,9.268-18.56c-3.086-3.453-15.696,3.469-19.482,7.129l-0.753,0.824
		c-0.957-0.322-2.703-0.905-4.815-1.586c0.427-0.869,0.202-1.955-0.59-2.573l-0.042-0.033c-0.907-0.706-2.227-0.542-2.933,0.365
		l-0.697,0.896c-5.774-1.777-12.069-3.51-12.789-2.867c-1.362,1.217-1.419,5.234-0.48,6.558c0.41,0.577,3.491,2.747,6.835,5.009
		c-0.114,0.727,0.149,1.495,0.769,1.977l0.042,0.033c0.704,0.548,1.654,0.566,2.375,0.125c1.159,0.77,2.253,1.49,3.178,2.097
		l-6.207,6.786c-3.305-0.145-9.729-0.337-10.466,0.322c-0.997,0.89-1.667,3.127-1.322,3.712c0.258,0.437,4.397,2.221,6.477,3.096
		c-0.194,0.748-0.25,1.474-0.163,2.142l-1.706,1.524c-0.616,0.55-0.669,1.504-0.119,2.119c0.55,0.616,1.504,0.669,2.12,0.119
		l1.324-1.183c0.825,0.477,1.893,0.644,3.043,0.506c0.661,2.236,1.876,6.201,2.265,6.493c0.543,0.409,2.841-0.007,3.837-0.897
		c0.704-0.629,1.219-6.504,1.461-9.905l7.814-5.68c0.585,1.159,1.33,2.629,2.133,4.19c-0.741,0.685-0.902,1.831-0.323,2.694
		l0.03,0.044c0.488,0.727,1.36,1.046,2.171,0.876c1.767,3.358,3.42,6.353,3.921,6.801c1.21,1.082,5.208,1.475,6.57,0.258
		c0.718-0.641-0.29-7.05-1.404-12.97l0.735-0.493C80.928,78.08,81.185,76.775,80.545,75.82z"/>
	<g>
		<g>
			<path class="st2" d="M106.537,57.346c-2.063,0.83-4.428,0.772-6.681,0.685c-2.443-0.093-4.887-0.187-7.33-0.28
				c-2.89,2.888-7.134,4.36-11.192,3.882c-0.928,3.694,3.698,6.158,5.531,9.497c2.312,4.211-0.206,9.529-3.614,12.913
				c-1.892,1.879-4.279,4.413-3.034,6.771c-2.098,1.571-4.195,3.141-6.293,4.712c-0.719,0.538-1.487,1.15-1.685,2.026
				c-0.367,1.628,1.507,2.963,3.175,3.006c1.668,0.044,3.278-0.667,4.946-0.705c1.469-0.033,2.846,0.449,4.215,1.018
				c13.284-7.93,22.184-22.441,22.184-39.037C106.759,60.32,106.682,58.823,106.537,57.346z"/>
		</g>
	</g>
	<g>
		<g>
			<path class="st2" d="M76.064,18.856c-4.624-1.586-9.58-2.459-14.742-2.459c-9.399,0-18.131,2.854-25.378,7.743
				c-0.952,0.87-1.904,1.74-2.856,2.611c-1.545,1.412-3.197,3.694-1.917,5.35c1.76,2.277,6.485-0.275,7.892,2.235
				c0.335,0.597,0.346,1.342,0.724,1.912c0.406,0.614,1.149,0.901,1.854,1.113c4.533,1.364,9.533,1.116,13.909-0.69
				c4.055-1.674,7.895-4.683,12.05-5.374c2.168-0.638,4.075-1.516,5.765-2.682c0.801-1.202,1.775-2.189,2.867-3.12
				c0.299-0.608,0.761-1.217,1.029-1.835C77.962,22.04,77.216,20.296,76.064,18.856z"/>
		</g>
	</g>
	<g>
		<g>
			<path class="st2" d="M46.367,73.802c-0.496-0.73-1.214-1.272-1.87-1.861c-4.896-4.387-6.426-12.112-3.572-18.035
				c-1.67-1.676-4.423-1.538-6.699-0.893c-2.276,0.645-4.544,1.689-6.896,1.434c-2.397-0.26-4.424-1.822-6.31-3.324
				c-0.424-0.337-0.859-0.689-1.11-1.169c-0.355-0.678-0.282-1.491-0.2-2.252c0.194-1.801,0.388-3.602,0.581-5.402
				c-2.823,5.918-4.407,12.542-4.407,19.536c0,14.815,7.094,27.97,18.066,36.265c0.605-0.497,1.04-1.155,1.136-1.962
				c0.257-2.155-1.825-4.118-1.446-6.255c0.179-1.008,0.88-1.835,1.279-2.778c1.011-2.389,0.306-5.809,2.564-7.086
				c1.79-1.013,4.028,0.272,6.069,0.015C46.26,79.694,47.901,76.06,46.367,73.802z"/>
		</g>
	</g>
	<g>
		<g>
			<path class="st8" d="M8.809,66.691c-0.349,0.513-0.216,1.211,0.296,1.559c0.193,0.131,0.413,0.194,0.63,0.194
				c0.359,0,0.712-0.172,0.929-0.491c1.529-2.247,3.259-4.581,5.246-7.08c0.027-1.295,0.1-2.579,0.234-3.845
				C13.263,60.513,10.858,63.678,8.809,66.691z"/>
		</g>
	</g>
	<g>
		<g>
			<path class="st8" d="M42.466,97.309c-0.242-0.571-0.899-0.836-1.471-0.595c-7.61,3.233-20.343,8.641-30.329,5.239
				c-3.648-1.243-6.14-3.474-7.409-6.63c-2.385-5.934-0.092-14.119,2.85-19.801c0.285-0.55,0.07-1.227-0.48-1.512
				s-1.228-0.069-1.513,0.48c-1.538,2.972-6.297,13.317-2.94,21.669c1.523,3.79,4.473,6.453,8.767,7.917
				c2.495,0.85,5.118,1.204,7.777,1.204c8.847,0,18.075-3.919,24.154-6.501C42.442,98.538,42.708,97.879,42.466,97.309z"/>
		</g>
	</g>
	<g>
		<g>
			<path class="st8" d="M56.318,90.2c-0.31-0.538-0.995-0.722-1.533-0.411c-2.439,1.409-4.906,2.736-7.33,3.944
				c-0.555,0.276-0.78,0.95-0.504,1.504c0.196,0.393,0.593,0.621,1.005,0.621c0.168,0,0.339-0.037,0.499-0.118
				c2.466-1.228,4.973-2.577,7.452-4.008C56.445,91.423,56.628,90.737,56.318,90.2z"/>
		</g>
	</g>
	<g>
		<g>
			<path class="st8" d="M110.628,35.727c-0.558-0.265-1.229-0.028-1.494,0.532c-1.731,3.644-3.916,7.323-6.682,11.246
				c-0.357,0.506-0.236,1.206,0.271,1.563c0.197,0.138,0.422,0.205,0.645,0.205c0.353,0,0.7-0.165,0.918-0.475
				c2.84-4.029,5.089-7.815,6.875-11.577C111.426,36.662,111.188,35.993,110.628,35.727z"/>
		</g>
	</g>
	<g>
		<g>
			<path class="st8" d="M112.674,14.415c-2.062-3.235-5.433-5.372-9.747-6.178c-11.877-2.222-25.13,3.237-35.348,8.239
				c-0.152,0.075-0.274,0.183-0.374,0.306c1.224,0.16,2.432,0.367,3.623,0.623c9.548-4.511,21.294-8.91,31.686-6.962
				c3.741,0.699,6.522,2.441,8.267,5.178c2.091,3.28,2.54,7.823,1.264,12.79c-0.154,0.601,0.208,1.212,0.808,1.366
				c0.094,0.024,0.187,0.035,0.279,0.035c0.5,0,0.956-0.337,1.086-0.843C115.65,23.395,115.102,18.225,112.674,14.415z"/>
		</g>
	</g>
	<g>
		<g>
			<g>
				<path class="st0" d="M75.704,54.359l-0.042-0.033c-0.907-0.706-2.227-0.542-2.933,0.365l-6.727,8.639
					c-0.706,0.907-0.542,2.227,0.365,2.933l0.042,0.033c0.907,0.706,2.227,0.542,2.933-0.365l6.727-8.639
					C76.775,56.385,76.611,55.065,75.704,54.359z"/>
			</g>
		</g>
		<g>
			<g>
				<path class="st3" d="M59.243,52.72c-1.362,1.217-1.419,5.234-0.48,6.558c0.94,1.324,15.919,11.013,15.919,11.013l7.226-11.504
					C81.907,58.787,60.604,51.503,59.243,52.72z"/>
			</g>
		</g>
		<g>
			<g>
				<path class="st0" d="M94.722,76.174l-0.03-0.044c-0.64-0.955-1.945-1.212-2.9-0.572L82.7,81.657
					c-0.955,0.64-1.212,1.945-0.572,2.9l0.03,0.044c0.64,0.955,1.945,1.212,2.9,0.572l9.093-6.099
					C95.106,78.433,95.363,77.129,94.722,76.174z"/>
			</g>
		</g>
		<g>
			<g>
				<path class="st3" d="M91.331,69.335l-12.241,5.89c0,0,7.949,15.971,9.159,17.053c1.21,1.082,5.208,1.475,6.57,0.259
					S91.331,69.335,91.331,69.335z"/>
			</g>
		</g>
		<g>
			<g>
				<path class="st3" d="M55.289,75.625c-0.997,0.891-1.667,3.127-1.322,3.712c0.345,0.585,7.652,3.586,7.652,3.586l6.087-7.524
					C67.706,75.4,56.285,74.735,55.289,75.625z"/>
			</g>
		</g>
		<g>
			<g>
				<path class="st3" d="M64.502,86.15c0,0,2.162,7.597,2.705,8.005c0.543,0.408,2.841-0.007,3.837-0.897
					c0.997-0.89,1.616-12.314,1.616-12.314L64.502,86.15z"/>
			</g>
		</g>
		<g>
			<g>
				<path class="st0" d="M101.345,50.565c-3.086-3.453-15.696,3.469-19.482,7.128L62.779,78.556c-2.67,2.527-3.289,6.17-1.681,7.97
					c1.61,1.802,5.298,1.593,8.108-0.776l22.871-16.625C96.138,65.773,104.43,54.019,101.345,50.565z"/>
			</g>
		</g>
		<g>
			<g>
				<path class="st3" d="M101.345,50.565L101.345,50.565c-1.431-1.601-4.913-0.954-8.61,0.547c3.027,2.08,5.499,4.768,7.041,8.081
					C101.729,55.64,102.794,52.187,101.345,50.565z"/>
			</g>
		</g>
		<g>
			<g>
				<path class="st3" d="M67.73,79.932c-0.55-0.616-1.504-0.669-2.12-0.119L58.575,86.1c-0.616,0.55-0.669,1.504-0.119,2.119
					c0.55,0.616,1.504,0.669,2.12,0.119l7.036-6.287C68.226,81.502,68.28,80.548,67.73,79.932z"/>
			</g>
		</g>
		<g>
			<g>
				<path class="st2" d="M96.772,60.982c-1.052-2.961-3.226-5.394-6.05-6.771c-0.69-0.337-1.447-0.081-1.63,0.478
					c-0.184,0.561,0.145,1.181,0.69,1.449c2.32,1.132,4.106,3.131,4.97,5.563c0.205,0.572,0.784,0.968,1.363,0.848
					C96.69,62.43,97.03,61.706,96.772,60.982z"/>
			</g>
		</g>
	</g>
</g>
</svg>
